<mxfile host="app.diagrams.net" modified="2021-08-16T03:01:03.644Z" agent="5.0 (Windows NT 10.0; Win64; x64) AppleWebKit/537.36 (KHTML, like Gecko) Chrome/92.0.4515.131 Safari/537.36" etag="FJAXq_M5IvLJfDY0REqV" version="14.9.6" type="github">
  <diagram id="R9lNJ8FQF6AW_y9z7kvw" name="第 1 页">
    <mxGraphModel dx="782" dy="468" grid="1" gridSize="10" guides="1" tooltips="1" connect="1" arrows="1" fold="1" page="1" pageScale="1" pageWidth="827" pageHeight="1169" math="0" shadow="0">
      <root>
        <mxCell id="0" />
        <mxCell id="1" parent="0" />
        <mxCell id="n-n4dYNRS50gd4oHZDqt-2" value="FIND ALL HYT SHOP AND TRY SYNC FROM LAST SYNC ID" style="rounded=1;whiteSpace=wrap;html=1;" vertex="1" parent="1">
          <mxGeometry x="280" y="20" width="130" height="60" as="geometry" />
        </mxCell>
        <mxCell id="n-n4dYNRS50gd4oHZDqt-3" value="" style="rounded=0;whiteSpace=wrap;html=1;" vertex="1" parent="1">
          <mxGeometry x="285" y="120" width="120" height="60" as="geometry" />
        </mxCell>
        <mxCell id="n-n4dYNRS50gd4oHZDqt-8" value="&lt;h1&gt;REMARK&lt;/h1&gt;&lt;div&gt;&lt;/div&gt;&lt;span style=&quot;text-align: center&quot;&gt;1. ADD FIELD &#39;OuidSync&#39; FOR app_hyt&lt;br&gt;2. SINGLE THREAD&lt;br&gt;&lt;/span&gt;" style="text;html=1;strokeColor=none;fillColor=none;spacing=5;spacingTop=-20;whiteSpace=wrap;overflow=hidden;rounded=0;" vertex="1" parent="1">
          <mxGeometry x="10" y="20" width="260" height="120" as="geometry" />
        </mxCell>
      </root>
    </mxGraphModel>
  </diagram>
</mxfile>
